<svg width="24" height="23" viewBox="0 0 24 23" fill="none" xmlns="http://www.w3.org/2000/svg">
<path d="M12 22.226C10.4917 22.226 9.06992 21.9373 7.73479 21.3599C6.40687 20.7826 5.23412 19.9851 4.21653 18.9675C3.19894 17.9499 2.40147 16.7772 1.82412 15.4493C1.24676 14.1141 0.958086 12.6924 0.958086 11.1841C0.958086 9.67572 1.24676 8.25759 1.82412 6.92967C2.40147 5.59454 3.19534 4.41818 4.20571 3.40059C5.2233 2.383 6.39605 1.58553 7.72396 1.00818C9.0591 0.430821 10.4808 0.142143 11.9892 0.142143C13.4975 0.142143 14.9193 0.430821 16.2544 1.00818C17.5895 1.58553 18.7659 2.383 19.7835 3.40059C20.8011 4.41818 21.5985 5.59454 22.1759 6.92967C22.7532 8.25759 23.0419 9.67572 23.0419 11.1841C23.0419 12.6924 22.7532 14.1141 22.1759 15.4493C21.5985 16.7772 20.8011 17.9499 19.7835 18.9675C18.7659 19.9851 17.5895 20.7826 16.2544 21.3599C14.9265 21.9373 13.5083 22.226 12 22.226ZM10.7876 16.4669C10.9752 16.4669 11.1448 16.4236 11.2963 16.337C11.4479 16.2503 11.5814 16.1204 11.6969 15.9472L16.7848 7.92561C16.8498 7.81736 16.9111 7.70188 16.9689 7.5792C17.0266 7.45651 17.0555 7.33382 17.0555 7.21113C17.0555 6.95854 16.9616 6.76007 16.774 6.61574C16.5864 6.46418 16.3771 6.3884 16.1461 6.3884C15.8286 6.3884 15.5688 6.55439 15.3667 6.88637L10.7443 14.3126L8.5467 11.4763C8.40957 11.2959 8.27606 11.1732 8.14616 11.1083C8.02347 11.0433 7.88274 11.0109 7.72396 11.0109C7.47859 11.0109 7.27291 11.1011 7.10692 11.2815C6.94093 11.4547 6.85793 11.664 6.85793 11.9094C6.85793 12.032 6.87958 12.1547 6.92288 12.2774C6.9734 12.3929 7.03836 12.5048 7.11774 12.613L9.83492 15.9472C9.97926 16.1349 10.1272 16.2684 10.2788 16.3478C10.4303 16.4272 10.5999 16.4669 10.7876 16.4669Z" fill="#1A237E"/>
</svg>
