<svg width="32" height="32" viewBox="0 0 32 32" fill="none" xmlns="http://www.w3.org/2000/svg">
<path opacity="0.7" d="M26.6654 9.33463V26.668C26.6654 27.3752 26.3844 28.0534 25.8843 28.5536C25.3842 29.0537 24.7059 29.3346 23.9987 29.3346H7.9987C7.29146 29.3346 6.61318 29.0537 6.11307 28.5536C5.61298 28.0534 5.33203 27.3752 5.33203 26.668V5.33464C5.33203 4.6274 5.61298 3.94908 6.11307 3.44897C6.61318 2.94888 7.29146 2.66797 7.9987 2.66797H19.9987L26.6654 9.33463Z" fill="url(#paint0_linear_1771_59035)"/>
<path d="M21.3333 9.33463H26.6667L20 2.66797V8.0013C20 8.35493 20.1405 8.69405 20.3905 8.94409C20.6405 9.19414 20.9797 9.33463 21.3333 9.33463Z" fill="#C4D4FF"/>
<path d="M21.9987 14.667H9.9987C9.63051 14.667 9.33203 14.9655 9.33203 15.3337V16.667C9.33203 17.0351 9.63051 17.3337 9.9987 17.3337H21.9987C22.3668 17.3337 22.6654 17.0351 22.6654 16.667V15.3337C22.6654 14.9655 22.3668 14.667 21.9987 14.667Z" fill="white"/>
<path d="M21.9987 20H9.9987C9.63051 20 9.33203 20.2985 9.33203 20.6667V22C9.33203 22.3681 9.63051 22.6667 9.9987 22.6667H21.9987C22.3668 22.6667 22.6654 22.3681 22.6654 22V20.6667C22.6654 20.2985 22.3668 20 21.9987 20Z" fill="white"/>
<path opacity="0.7" d="M26.6654 9.33463V26.668C26.6654 27.3752 26.3844 28.0534 25.8843 28.5536C25.3842 29.0537 24.7059 29.3346 23.9987 29.3346H7.9987C7.29146 29.3346 6.61318 29.0537 6.11307 28.5536C5.61298 28.0534 5.33203 27.3752 5.33203 26.668V5.33464C5.33203 4.6274 5.61298 3.94908 6.11307 3.44897C6.61318 2.94888 7.29146 2.66797 7.9987 2.66797H19.9987L26.6654 9.33463Z" fill="url(#paint1_linear_1771_59035)"/>
<path d="M21.3333 9.33463H26.6667L20 2.66797V8.0013C20 8.35493 20.1405 8.69405 20.3905 8.94409C20.6405 9.19414 20.9797 9.33463 21.3333 9.33463Z" fill="#C4D4FF"/>
<path d="M21.9987 14.667H9.9987C9.63051 14.667 9.33203 14.9655 9.33203 15.3337V16.667C9.33203 17.0351 9.63051 17.3337 9.9987 17.3337H21.9987C22.3668 17.3337 22.6654 17.0351 22.6654 16.667V15.3337C22.6654 14.9655 22.3668 14.667 21.9987 14.667Z" fill="white"/>
<path d="M21.9987 20H9.9987C9.63051 20 9.33203 20.2985 9.33203 20.6667V22C9.33203 22.3681 9.63051 22.6667 9.9987 22.6667H21.9987C22.3668 22.6667 22.6654 22.3681 22.6654 22V20.6667C22.6654 20.2985 22.3668 20 21.9987 20Z" fill="white"/>
<defs>
<linearGradient id="paint0_linear_1771_59035" x1="9.26982" y1="26.1695" x2="22.2044" y2="8.52464" gradientUnits="userSpaceOnUse">
<stop stop-color="#3D73FF"/>
<stop offset="1" stop-color="#0047FF"/>
</linearGradient>
<linearGradient id="paint1_linear_1771_59035" x1="9.26982" y1="26.1695" x2="22.2044" y2="8.52464" gradientUnits="userSpaceOnUse">
<stop stop-color="#3D73FF"/>
<stop offset="1" stop-color="#0047FF"/>
</linearGradient>
</defs>
</svg>
