<svg width="20" height="20" viewBox="0 0 20 20" fill="none" xmlns="http://www.w3.org/2000/svg">
<path d="M12.4818 9.99967C12.4818 10.1108 12.4609 10.2186 12.4193 10.323C12.3776 10.4275 12.322 10.5141 12.2526 10.583L8.41927 14.4163C8.26649 14.5691 8.07205 14.6455 7.83594 14.6455C7.59983 14.6455 7.40538 14.5691 7.2526 14.4163C7.09983 14.2636 7.02344 14.0691 7.02344 13.833C7.02344 13.5969 7.09983 13.4025 7.2526 13.2497L10.5026 9.99967L7.2526 6.74968C7.09983 6.5969 7.02344 6.40245 7.02344 6.16634C7.02344 5.93023 7.09983 5.73579 7.2526 5.58301C7.40538 5.43023 7.59983 5.35384 7.83594 5.35384C8.07205 5.35384 8.26649 5.43023 8.41927 5.58301L12.2526 9.41634C12.3359 9.49967 12.3951 9.58995 12.4301 9.68717C12.4651 9.7844 12.4823 9.88856 12.4818 9.99967Z" fill="black"/>
</svg>
